<?xml version="1.0" encoding="UTF-8"?>
<!-- Created with Inkscape (http://www.inkscape.org/) -->
<svg width="300" height="300" version="1.1" viewBox="0 0 79.375 79.375" xmlns="http://www.w3.org/2000/svg">
 <g stroke-linecap="round" stroke-linejoin="round">
  <path d="m39.688 9.9276c-16.412 0-29.76 13.348-29.76 29.76s13.348 29.76 29.76 29.76c15.357 0 28.03-11.687 29.596-26.635h-3.9936c-1.5377 12.788-12.393 22.666-25.603 22.666-14.267 0-25.791-11.524-25.791-25.791s11.524-25.791 25.791-25.791c13.209 0 24.065 9.8785 25.603 22.666h3.9936c-1.5662-14.948-14.239-26.635-29.596-26.635z" color="#000000" style="-inkscape-stroke:none"/>
  <path d="m39.596 16.181c-12.907 0-23.414 10.507-23.414 23.414s10.507 23.413 23.414 23.413c11.816 0 21.617-8.8044 23.19-20.196h-4.0116c-1.5269 9.2238-9.5125 16.227-19.179 16.227-10.762 0-19.445-8.6813-19.445-19.444s8.6829-19.445 19.445-19.445c9.7302 0 17.759 7.0978 19.209 16.412h4.007c-1.4923-11.48-11.337-20.381-23.216-20.381z" color="#000000" style="-inkscape-stroke:none"/>
  <path d="m39.596 22.99c-9.1466 0-16.605 7.4586-16.605 16.605s7.4586 16.604 16.605 16.604c8.0465 0 14.785-5.7712 16.289-13.387h-4.0649c-1.4152 5.4327-6.3354 9.418-12.225 9.418-7.0018 0-12.636-5.6331-12.636-12.635s5.6347-12.636 12.636-12.636c5.9554 0 10.92 4.0767 12.271 9.6035h4.054c-1.4317-7.7066-8.2135-13.572-16.325-13.572z" color="#000000" style="-inkscape-stroke:none"/>
  <path d="m39.596 29.525c-5.5378 0-10.07 4.5324-10.07 10.07 0 5.5378 4.5324 10.069 10.07 10.069 4.4143 0 8.1887-2.8789 9.5384-6.8518h-1.5947c-1.0132 0-1.9457-0.011655-2.728-0.03204-1.0659 1.7542-2.9937 2.9151-5.2157 2.9151-3.393 0-6.1014-2.7069-6.1014-6.0999 0-3.393 2.7085-6.1014 6.1014-6.1014 2.2975 0 4.2792 1.2427 5.3201 3.098 0.76044-0.018727 1.6555-0.029456 2.6236-0.029456h1.6547c-1.2945-4.0679-5.1164-7.0373-9.5984-7.0373z" color="#000000" style="-inkscape-stroke:none"/>
  <path d="m39.688 3.3321c-20.055 0-36.355 16.3-36.355 36.355s16.3 36.355 36.355 36.355c19.002 0 34.631-14.634 36.22-33.231h-3.9832c-1.5682 16.439-15.381 29.262-32.237 29.262-17.91 0-32.387-14.476-32.387-32.387 1e-7 -17.91 14.476-32.387 32.387-32.387 16.856 0 30.669 12.823 32.237 29.262h3.9832c-1.5888-18.596-17.218-33.231-36.22-33.231z" color="#000000" style="-inkscape-stroke:none"/>
 </g>
</svg>
