<?xml version="1.0" encoding="UTF-8"?>
<!-- Created with Inkscape (http://www.inkscape.org/) -->
<svg width="300" height="300" version="1.1" viewBox="0 0 79.375 79.375"
  xmlns="http://www.w3.org/2000/svg">
  <g stroke-linecap="round" stroke-linejoin="round">
    <path
      d="m39.596 29.525c-5.5378 0-10.07 4.5324-10.07 10.07 0 5.5378 4.5324 10.069 10.07 10.069 4.4143 0 8.1887-2.8789 9.5384-6.8518h-1.5947c-1.0132 0-1.9457-0.011655-2.728-0.03204-1.0659 1.7542-2.9937 2.9151-5.2157 2.9151-3.393 0-6.1014-2.7069-6.1014-6.0999 0-3.393 2.7085-6.1014 6.1014-6.1014 2.2975 0 4.2792 1.2427 5.3201 3.098 0.76044-0.018727 1.6555-0.029456 2.6236-0.029456h1.6547c-1.2945-4.0679-5.1164-7.0373-9.5984-7.0373z"
      color="#000000" style="-inkscape-stroke:none" />
  </g>
</svg>