<?xml version="1.0" encoding="UTF-8" standalone="no"?>
<svg
   viewBox="-20 0 680 680"
   fill="none"
   stroke="#ffffff"
   stroke-width="42px"
   version="1.1"
   id="svg234"
   sodipodi:docname="gamepad-solid.svg"
   width="680"
   height="680"
   inkscape:version="1.2.2 (b0a8486541, 2022-12-01)"
   xmlns:inkscape="http://www.inkscape.org/namespaces/inkscape"
   xmlns:sodipodi="http://sodipodi.sourceforge.net/DTD/sodipodi-0.dtd"
   xmlns="http://www.w3.org/2000/svg"
   xmlns:svg="http://www.w3.org/2000/svg">
  <defs
     id="defs238" />
  <sodipodi:namedview
     id="namedview236"
     pagecolor="#ffffff"
     bordercolor="#000000"
     borderopacity="0.25"
     inkscape:showpageshadow="2"
     inkscape:pageopacity="0.0"
     inkscape:pagecheckerboard="0"
     inkscape:deskcolor="#d1d1d1"
     showgrid="false"
     inkscape:zoom="0.82507032"
     inkscape:cx="436.32645"
     inkscape:cy="339.97102"
     inkscape:window-width="1920"
     inkscape:window-height="1018"
     inkscape:window-x="0"
     inkscape:window-y="34"
     inkscape:window-maximized="1"
     inkscape:current-layer="svg234" />
  <!--!Font
  Awesome Free 6.6.0 by @fontawesome - https://fontawesome.com License -
  https://fontawesome.com/license/free Copyright 2024 Fonticons, Inc.-->
  <path
     d="M 192,148 C 86,148 0,234 0,340 0,446 86,532 192,532 H 448 C 554,532 640,446 640,340 640,234 554,148 448,148 Z m 304,104 a 40,40 0 1 1 0,80 40,40 0 1 1 0,-80 z M 392,388 a 40,40 0 1 1 80,0 40,40 0 1 1 -80,0 z M 168,284 c 0,-13.3 10.7,-24 24,-24 13.3,0 24,10.7 24,24 v 32 h 32 c 13.3,0 24,10.7 24,24 0,13.3 -10.7,24 -24,24 h -32 v 32 c 0,13.3 -10.7,24 -24,24 -13.3,0 -24,-10.7 -24,-24 v -32 h -32 c -13.3,0 -24,-10.7 -24,-24 0,-13.3 10.7,-24 24,-24 h 32 z"
     id="path232" />
</svg>
